<?xml version="1.0" standalone="no"?>
<svg xmlns:xlink="http://www.w3.org/1999/xlink" id="wave" style="transform:rotate(0deg); transition: 0.3s" viewBox="0 0 1440 240" version="1.1" xmlns="http://www.w3.org/2000/svg"><defs><linearGradient id="sw-gradient-0" x1="0" x2="0" y1="1" y2="0"><stop stop-color="rgba(255, 217, 135, 1)" offset="0%"/><stop stop-color="rgba(255, 175.574, 0, 1)" offset="100%"/></linearGradient></defs><path style="transform:translate(0, 0px); opacity:1" fill="url(#sw-gradient-0)" d="M0,192L80,196C160,200,320,208,480,208C640,208,800,200,960,180C1120,160,1280,128,1440,128C1600,128,1760,160,1920,176C2080,192,2240,192,2400,172C2560,152,2720,112,2880,100C3040,88,3200,104,3360,92C3520,80,3680,40,3840,40C4000,40,4160,80,4320,116C4480,152,4640,184,4800,180C4960,176,5120,136,5280,108C5440,80,5600,64,5760,72C5920,80,6080,112,6240,124C6400,136,6560,128,6720,140C6880,152,7040,184,7200,200C7360,216,7520,216,7680,188C7840,160,8000,104,8160,72C8320,40,8480,32,8640,28C8800,24,8960,24,9120,20C9280,16,9440,8,9600,8C9760,8,9920,16,10080,32C10240,48,10400,72,10560,96C10720,120,10880,144,11040,144C11200,144,11360,120,11440,108L11520,96L11520,240L11440,240C11360,240,11200,240,11040,240C10880,240,10720,240,10560,240C10400,240,10240,240,10080,240C9920,240,9760,240,9600,240C9440,240,9280,240,9120,240C8960,240,8800,240,8640,240C8480,240,8320,240,8160,240C8000,240,7840,240,7680,240C7520,240,7360,240,7200,240C7040,240,6880,240,6720,240C6560,240,6400,240,6240,240C6080,240,5920,240,5760,240C5600,240,5440,240,5280,240C5120,240,4960,240,4800,240C4640,240,4480,240,4320,240C4160,240,4000,240,3840,240C3680,240,3520,240,3360,240C3200,240,3040,240,2880,240C2720,240,2560,240,2400,240C2240,240,2080,240,1920,240C1760,240,1600,240,1440,240C1280,240,1120,240,960,240C800,240,640,240,480,240C320,240,160,240,80,240L0,240Z"/><defs><linearGradient id="sw-gradient-1" x1="0" x2="0" y1="1" y2="0"><stop stop-color="rgba(243, 106, 62, 1)" offset="0%"/><stop stop-color="rgba(255, 179, 11, 1)" offset="100%"/></linearGradient></defs><path style="transform:translate(0, 50px); opacity:0.9" fill="url(#sw-gradient-1)" d="M0,0L80,4C160,8,320,16,480,48C640,80,800,136,960,144C1120,152,1280,112,1440,80C1600,48,1760,24,1920,16C2080,8,2240,16,2400,28C2560,40,2720,56,2880,88C3040,120,3200,168,3360,192C3520,216,3680,216,3840,188C4000,160,4160,104,4320,88C4480,72,4640,96,4800,108C4960,120,5120,120,5280,132C5440,144,5600,168,5760,168C5920,168,6080,144,6240,120C6400,96,6560,72,6720,84C6880,96,7040,144,7200,140C7360,136,7520,80,7680,56C7840,32,8000,40,8160,52C8320,64,8480,80,8640,72C8800,64,8960,32,9120,44C9280,56,9440,112,9600,148C9760,184,9920,200,10080,172C10240,144,10400,72,10560,60C10720,48,10880,96,11040,112C11200,128,11360,112,11440,104L11520,96L11520,240L11440,240C11360,240,11200,240,11040,240C10880,240,10720,240,10560,240C10400,240,10240,240,10080,240C9920,240,9760,240,9600,240C9440,240,9280,240,9120,240C8960,240,8800,240,8640,240C8480,240,8320,240,8160,240C8000,240,7840,240,7680,240C7520,240,7360,240,7200,240C7040,240,6880,240,6720,240C6560,240,6400,240,6240,240C6080,240,5920,240,5760,240C5600,240,5440,240,5280,240C5120,240,4960,240,4800,240C4640,240,4480,240,4320,240C4160,240,4000,240,3840,240C3680,240,3520,240,3360,240C3200,240,3040,240,2880,240C2720,240,2560,240,2400,240C2240,240,2080,240,1920,240C1760,240,1600,240,1440,240C1280,240,1120,240,960,240C800,240,640,240,480,240C320,240,160,240,80,240L0,240Z"/><defs><linearGradient id="sw-gradient-2" x1="0" x2="0" y1="1" y2="0"><stop stop-color="rgba(243, 106, 62, 1)" offset="0%"/><stop stop-color="rgba(255, 179, 11, 1)" offset="100%"/></linearGradient></defs><path style="transform:translate(0, 100px); opacity:0.8" fill="url(#sw-gradient-2)" d="M0,48L80,52C160,56,320,64,480,64C640,64,800,56,960,56C1120,56,1280,64,1440,60C1600,56,1760,40,1920,52C2080,64,2240,104,2400,104C2560,104,2720,64,2880,44C3040,24,3200,24,3360,44C3520,64,3680,104,3840,104C4000,104,4160,64,4320,72C4480,80,4640,136,4800,144C4960,152,5120,112,5280,96C5440,80,5600,88,5760,104C5920,120,6080,144,6240,128C6400,112,6560,56,6720,40C6880,24,7040,48,7200,56C7360,64,7520,56,7680,76C7840,96,8000,144,8160,168C8320,192,8480,192,8640,188C8800,184,8960,176,9120,152C9280,128,9440,88,9600,96C9760,104,9920,160,10080,156C10240,152,10400,88,10560,88C10720,88,10880,152,11040,180C11200,208,11360,200,11440,196L11520,192L11520,240L11440,240C11360,240,11200,240,11040,240C10880,240,10720,240,10560,240C10400,240,10240,240,10080,240C9920,240,9760,240,9600,240C9440,240,9280,240,9120,240C8960,240,8800,240,8640,240C8480,240,8320,240,8160,240C8000,240,7840,240,7680,240C7520,240,7360,240,7200,240C7040,240,6880,240,6720,240C6560,240,6400,240,6240,240C6080,240,5920,240,5760,240C5600,240,5440,240,5280,240C5120,240,4960,240,4800,240C4640,240,4480,240,4320,240C4160,240,4000,240,3840,240C3680,240,3520,240,3360,240C3200,240,3040,240,2880,240C2720,240,2560,240,2400,240C2240,240,2080,240,1920,240C1760,240,1600,240,1440,240C1280,240,1120,240,960,240C800,240,640,240,480,240C320,240,160,240,80,240L0,240Z"/></svg>